PathFileType	4	(X/Y/Z)	C:\Documents and Settings\user\My Documents\MotionFiles\BioEngCompLab_Data\Delaware\Subject 2\running_3001_smoothed.trc																																																																																																																									
DataRate	CameraRate	NumFrames	NumMarkers	Units	OrigDataRate	OrigDataStartFrame	OrigNumFrames																																																																																																																					
60	60	5	41	mm	60	151	600																																																																																																																					
Frame#	Time	R.ASIS			L.ASIS			V.Sacral			R.Thigh.Upper			R.Thigh.Front			R.Thigh.Rear			L.Thigh.Upper			L.Thigh.Front			L.Thigh.Rear			R.Shank.Upper			R.Shank.Front			R.Shank.Rear			L.Shank.Upper			L.Shank.Front			L.Shank.Rear			R.Heel			R.Midfoot.Sup			R.Midfoot.Lat			R.Toe.Tip			L.Heel			L.Midfoot.Sup			L.Midfoot.Lat			L.Toe.Tip			Sternum			R.Acromium			L.Acromium			R.Bicep			L.Bicep			R.Elbow			L.Elbow			R.Wrist.Med			R.Wrist.Lat			L.Wrist.Med			L.Wrist.Lat			R.Toe.Lat			R.Toe.Med			L.Toe.Lat			L.Toe.Med			R.Temple			L.Temple			Top.Head		
		X1	Y1	Z1	X2	Y2	Z2	X3	Y3	Z3	X4	Y4	Z4	X5	Y5	Z5	X6	Y6	Z6	X7	Y7	Z7	X8	Y8	Z8	X9	Y9	Z9	X10	Y10	Z10	X11	Y11	Z11	X12	Y12	Z12	X13	Y13	Z13	X14	Y14	Z14	X15	Y15	Z15	X16	Y16	Z16	X17	Y17	Z17	X18	Y18	Z18	X19	Y19	Z19	X20	Y20	Z20	X21	Y21	Z21	X22	Y22	Z22	X23	Y23	Z23	X24	Y24	Z24	X25	Y25	Z25	X26	Y26	Z26	X27	Y27	Z27	X28	Y28	Z28	X29	Y29	Z29	X30	Y30	Z30	X31	Y31	Z31	X32	Y32	Z32	X33	Y33	Z33	X34	Y34	Z34	X35	Y35	Z35	X36	Y36	Z36	X37	Y37	Z37	X38	Y38	Z38	X39	Y39	Z39	X40	Y40	Z40	X41	Y41	Z41

151	2.500000	851.105900	1025.298580	-71.602010	867.068730	1008.861630	-321.204590	668.477780	1035.074340	-219.210660	893.614140	734.158200	-34.781820	977.561830	722.279910	-105.494840	915.599370	638.495360	-52.411840	722.293700	712.509030	-363.958130	767.036930	623.635860	-299.273620	664.594300	597.168520	-356.770630	973.064450	453.812560	-80.293880	1039.431880	403.728330	-131.344060	981.409670	370.153020	-80.916750	508.633970	512.047180	-354.249970	469.314790	420.632750	-314.884520	439.421140	505.903170	-351.020260	958.078310	60.063530	-180.391020	1094.214110	101.117240	-215.425540	1071.458010	76.047310	-115.911490	1216.220950	130.605530	-181.488620	179.477070	474.365510	-273.041900	156.605440	332.488460	-226.440490	122.752170	345.158230	-321.556060	127.721590	195.118000	-254.908020	904.665160	1387.477290	-185.847980	739.959960	1476.993160	-18.315010	819.981630	1483.825440	-407.164830	563.708130	1367.881100	7.518890	0.000000	0.000000	0.000000	479.426480	1305.771000	30.120020	790.680360	1172.654050	-498.836030	579.105410	1067.926270	77.841820	625.339900	1071.516360	32.474090	1019.800780	1127.501830	-387.960050	1005.123050	1178.711790	-346.404790	1162.155150	87.409820	-107.955520	1165.325680	88.635510	-219.171680	93.699640	272.623200	-330.111820	117.720810	268.347080	-217.988740	960.423340	1577.904910	-125.307260	977.073000	1582.442500	-266.839480	1045.017460	1647.591920	-200.789470	
152	2.517000	848.894780	1015.694090	-70.719230	864.701540	996.725650	-320.577240	665.035580	1021.804020	-218.889430	894.018370	725.341670	-35.004460	979.118290	714.325200	-104.486610	917.519100	630.161680	-53.441550	731.896180	696.214290	-364.476140	783.864260	609.171080	-302.948910	683.065190	577.228760	-358.907040	970.842290	446.577240	-82.012720	1029.549560	391.386960	-135.752730	970.822140	363.311830	-83.373100	534.784000	498.987180	-356.359160	488.278810	410.868130	-319.171020	465.377960	499.098390	-352.573360	915.837710	61.692910	-183.153170	1052.573610	90.688260	-220.592070	1028.150270	70.524060	-119.711960	1179.996220	114.940860	-186.236680	203.454250	491.941650	-272.951050	169.684920	349.499760	-230.310290	136.776720	366.310360	-325.279880	131.826750	211.971180	-261.687770	904.008000	1371.465450	-185.675080	740.945620	1460.955320	-13.747900	819.289730	1471.329710	-406.157750	569.381710	1344.937740	16.707810	0.000000	0.000000	0.000000	487.471310	1281.507570	41.033520	780.820680	1161.015750	-498.671020	596.279600	1047.433590	86.952100	640.750730	1052.045780	39.756000	1006.521790	1094.688960	-391.434110	995.289180	1144.883300	-347.097050	1120.978880	75.557270	-111.893160	1123.589970	73.805730	-223.393510	102.766530	294.968540	-335.715360	125.817170	287.749020	-223.858110	961.592410	1565.748170	-124.020110	977.101870	1570.510860	-265.450990	1046.074220	1635.258790	-199.855710	
153	2.533000	846.164670	1006.539610	-70.228810	860.682370	984.194640	-320.466220	660.414860	1009.265380	-217.949160	892.170040	716.220340	-35.051330	978.775880	705.447810	-102.741030	916.494320	621.208740	-53.802980	744.756530	680.476070	-365.837650	802.687990	596.443970	-305.636600	705.349550	557.804570	-361.343870	965.324280	439.266240	-83.365800	1014.710510	378.832890	-140.014940	955.481320	357.021150	-85.433140	566.015260	484.860630	-359.155520	514.294070	400.043030	-323.135470	496.958560	489.828640	-355.002380	862.116390	64.144780	-185.396760	1000.242680	81.030770	-225.059250	974.078000	65.873950	-123.036550	1133.115600	98.521600	-190.432070	233.029620	502.714140	-273.881440	192.744510	359.549010	-234.307280	161.212590	379.028350	-329.330050	149.866790	222.271160	-267.616490	902.112180	1354.647710	-186.481720	742.895750	1444.187010	-8.343670	817.586550	1458.944700	-405.500550	577.786990	1319.822390	27.333370	0.000000	0.000000	0.000000	499.288820	1254.359250	53.493580	768.579650	1149.714230	-498.618900	619.438720	1025.382810	95.767170	661.676510	1031.550660	46.538780	987.733150	1058.540280	-397.399990	980.594060	1107.047850	-349.759890	1068.865720	64.246350	-115.074390	1071.134890	59.230250	-226.902730	124.637860	308.411010	-341.327700	146.110170	299.005580	-229.815920	962.497860	1553.691890	-123.128360	976.894170	1558.849000	-264.527040	1047.008670	1623.007810	-199.384520	
154	2.550000	842.921690	998.633970	-70.006260	855.422120	972.593320	-320.696170	655.026180	998.745360	-216.483890	886.735470	706.848820	-35.004820	974.484500	695.049500	-101.122430	910.120120	611.485780	-53.908370	761.402830	667.372920	-367.798980	823.693660	587.358760	-306.575290	732.049380	541.330630	-363.879090	953.100830	430.627840	-84.588410	992.870670	365.882320	-144.034770	933.459290	350.116460	-87.330480	602.398380	471.298740	-362.494750	547.523010	389.263240	-326.129550	533.785100	479.395420	-358.202550	800.506900	66.641940	-187.021840	940.571660	73.200100	-228.528920	912.941530	62.394650	-125.711180	1077.970830	83.083850	-193.932820	266.464780	506.295010	-275.820530	224.890340	362.108730	-237.997210	195.225850	382.521150	-333.368930	182.000640	225.115480	-272.225800	899.310490	1338.968990	-188.436510	745.931090	1428.672120	-2.881940	814.327940	1448.334840	-405.025240	589.086490	1294.759640	38.465780	0.000000	0.000000	0.000000	515.389220	1226.335450	66.727230	753.409360	1140.683110	-498.256990	649.018740	1004.282290	103.363030	688.435120	1012.558410	52.114150	962.503780	1021.949830	-405.760800	960.272830	1068.066280	-354.673980	1009.127500	54.808260	-117.440540	1011.153930	46.661260	-229.583040	158.913930	311.967070	-346.497440	178.107650	301.285060	-235.294050	963.058720	1542.817750	-122.728210	976.384640	1548.508540	-264.154050	1047.715330	1611.891970	-199.440380	
155	2.567000	839.223270	992.615420	-69.852650	849.678890	963.301880	-320.953640	649.454040	991.295040	-214.787510	876.827030	697.572630	-35.042410	964.769780	683.048830	-100.358630	896.891660	601.282410	-54.122440	781.191350	658.727840	-369.794680	846.973750	583.672060	-305.761570	763.043400	530.209050	-366.212190	931.577640	420.026640	-85.833340	962.665220	352.345340	-147.742190	903.190190	341.811710	-89.334820	643.562190	459.958500	-365.944210	587.504330	379.805420	-327.604160	575.041020	469.224240	-361.705570	734.295590	68.879480	-188.017700	876.527280	67.721660	-230.886180	847.871150	60.113140	-127.670300	1016.910770	69.912930	-196.684110	302.151550	502.432530	-278.483250	264.981230	357.085390	-240.912840	237.699550	376.689790	-336.949860	227.832000	220.456630	-275.149380	896.198430	1326.644900	-191.503620	750.063050	1416.212770	1.741060	809.057920	1440.776000	-404.593570	603.114140	1272.148190	49.023220	0.000000	0.000000	0.000000	535.711240	1199.800900	79.726470	734.333560	1135.666500	-497.349370	685.082400	987.342290	108.766840	720.819400	998.316100	55.720160	930.391170	988.834170	-416.103240	934.053770	1032.009280	-361.959590	944.719060	47.922490	-119.060490	946.484500	37.104650	-231.436740	204.753590	305.598080	-350.738160	220.919630	294.497990	-239.707930	963.245610	1534.141970	-122.900410	975.530940	1540.426760	-264.401000	1048.118530	1602.897950	-200.093060	
